<svg version="1.1" xmlns="http://www.w3.org/2000/svg" xmlns:xlink="http://www.w3.org/1999/xlink" width="435.55556" height="177.003" viewBox="0,0,435.55556,177.003"><defs><linearGradient x1="564.02102" y1="179.48026" x2="489.96997" y2="179.48026" gradientUnits="userSpaceOnUse" id="color-1"><stop offset="0" stop-color="#dfdfdf" stop-opacity="0"/><stop offset="1" stop-color="#dfdfdf"/></linearGradient></defs><g transform="translate(-128.46547,-91)"><g stroke="none" stroke-miterlimit="10"><path d="M128.46547,268.003v-177.003h362.75075v177.003z" fill="#dfdfdf" stroke-width="0"/><path d="M289.79564,206.35591c-9.94045,11.16696 -24.46879,16.62059 -24.46879,16.62059l-16.31253,-20.77573l8.15626,-4.15515z" fill="#b4cbdc" stroke-width="1"/><path d="M310.1863,156.49415l-12.2344,-9.34908c16.31253,-7.27151 24.46879,-15.5818 24.46879,-15.5818c12.99905,9.54385 24.46879,21.81452 24.46879,21.81452z" fill="#7da0be" stroke-width="1"/><path d="M444.76467,173.11474c-10.19533,3.11636 -16.31253,16.62059 -16.31253,16.62059h16.31253c-9.51581,7.96438 -43.49991,24.93088 -81.56264,24.93088c-38.06274,0 -72.72686,2.77044 -110.10957,-16.62059c-28.46077,-14.76324 -28.03716,16.62059 -61.17198,16.62059c0,0 8.15626,-21.29513 8.15626,-33.24117c0,-11.94605 -8.15626,-33.24117 -8.15626,-33.24117c33.13482,0 32.11529,30.12481 61.17198,16.62059c29.05669,-13.50423 100.42401,-16.62059 114.1877,-16.62059c13.7637,0 64.23058,18.17877 77.48451,24.93088z" fill="#ebf5fa" stroke-width="1"/><path d="M444.76467,189.73532c-6.35628,5.31963 -23.65725,14.63546 -45.77143,20.24907c-5.88678,-8.88838 -12.28894,-26.33791 8.23069,-51.52018c15.64932,5.3082 31.05396,11.34563 37.54074,14.65053c-10.19533,3.11636 -16.31253,16.62059 -16.31253,16.62059z" fill="#cfe0eb" stroke-width="1"/><path d="M444.76518,173.11422c-12.2344,0 -20.39066,16.62059 -36.70319,8.31029c-2.08189,-1.06008 -4.0868,-2.0755 -6.04175,-3.04053l-7.5578,-3.52356c-10.67808,-4.70882 -20.84129,-7.5873 -35.33854,-7.5873c-81.56264,0 -108.15615,24.17256 -159.10017,15.49922c0.0209,-0.45239 0.05302,-0.91829 0.05302,-1.34731c0,-11.94605 -8.15626,-33.24117 -8.15626,-33.24117c33.13482,0 32.11529,30.12481 61.17198,16.62059c29.05669,-13.50423 100.42401,-16.62059 114.1877,-16.62059c13.7637,0 64.23058,18.17877 77.48502,24.93036z" fill="#96bee1" stroke-width="1"/><g fill="#7da0be" stroke-width="1"><path d="M191.92047,215.70499c0,0 8.15626,-21.62806 8.15626,-33.76057c0,-12.13251 -8.15626,-33.76057 -8.15626,-33.76057c23.0287,0 27.39995,8.31029 37.21296,16.10119c-3.60201,2.64371 -11.21487,10.62004 -11.21487,17.65937c0,6.78068 8.1685,15.99108 11.72463,18.69816c-10.19533,6.23272 -15.13752,15.06241 -37.72272,15.06241z"/><path d="M307.76542,152.99136l-8.15626,-8.31029l24.46879,-20.77573c12.99905,12.72514 12.2344,24.93088 12.2344,24.93088"/></g><g fill="#b4cbdc" stroke-width="1"><path d="M328.15608,215.31856c-2.54883,17.39968 -20.39066,20.77573 -20.39066,20.77573v-20.77573"/><path d="M397.48433,211.16341c0,0 -22.17484,-2.33727 -24.46879,-4.15515c-3.21917,-2.55074 -18.86136,-20.77573 -4.07813,-20.77573c14.78323,0 32.62506,12.46544 32.62506,12.46544"/></g><path d="M449.01051,193.59857c-9.68556,8.10565 -44.32216,25.87514 -84.15124,25.87514c-4.24686,0 -8.51208,0.0348 -12.63711,0.06856c-4.13421,0.03428 -8.24598,0.06804 -12.33176,0.06804c-2.82665,0 -5.64363,-0.01714 -8.45346,-0.06025c-4.62919,16.9691 -22.13508,20.47968 -22.92675,20.62927c-0.24775,0.04726 -0.49702,0.07012 -0.74477,0.07012c-0.9446,0 -1.8688,-0.33501 -2.60695,-0.96036c-0.93185,-0.78896 -1.47119,-1.95967 -1.47119,-3.19479v-18.27693c-7.07607,-0.8757 -14.16284,-2.16327 -21.30314,-4.04296c-0.04792,0.06129 -0.09278,0.1231 -0.14477,0.18075c-10.83611,12.1725 -22.42973,13.73743 -22.91808,13.7982c-0.16618,0.02078 -0.33186,0.03064 -0.496,0.03064c-1.73525,0 -3.30584,-1.12864 -3.86607,-2.84108l-8.15626,-24.93088c-0.02345,-0.07064 -0.03874,-0.14127 -0.05812,-0.21191c-5.4856,-1.69426 -9.3481,-0.89699 -13.13617,1.28758c-0.62395,0.90322 -1.56039,1.49326 -2.58656,1.68803c-1.44978,1.03931 -2.93931,2.23806 -4.55374,3.53863c-7.27539,5.86291 -16.33088,13.15935 -32.89065,13.15935c-1.3468,0 -2.60694,-0.67781 -3.36701,-1.81061c-0.76006,-1.13332 -0.92166,-2.57567 -0.43228,-3.85442c0.07901,-0.2062 7.87742,-20.71133 7.87742,-31.7313c0,-11.01997 -7.79841,-31.5251 -7.87742,-31.7313c-0.48938,-1.27875 -0.32778,-2.7211 0.43228,-3.85442c0.76006,-1.1328 2.0202,-1.81061 3.36701,-1.81061c16.598,0 25.54899,7.08193 32.74027,12.77292c2.03397,1.60908 3.89156,3.0774 5.75424,4.27149c0.23143,0.11531 0.45318,0.25243 0.66117,0.41188c5.23887,3.16207 10.68216,4.02114 20.32388,-0.46018c11.26074,-5.23393 28.41388,-8.92629 46.17771,-11.50041l-2.50958,-2.55697c-0.81002,-0.82584 -1.2423,-1.96071 -1.19031,-3.12675c0.05149,-1.16604 0.58266,-2.25676 1.46303,-3.00365l24.46879,-20.77573c1.59659,-1.35562 3.93846,-1.27095 5.43615,0.19581c10.31615,10.09804 12.77424,20.09221 13.33447,25.02853c13.60822,-0.93543 24.39641,-1.25693 28.69986,-1.25693c9.57953,0 34.36285,7.77999 54.26873,15.09721c0.08411,0.02753 0.16669,0.05817 0.24826,0.09141c10.81215,3.98167 20.15617,7.81739 24.79046,10.17855c0.0158,0.00779 0.02957,0.01766 0.04486,0.02597c0.07341,0.03844 0.14477,0.08103 0.21614,0.12414c0.04639,0.02805 0.0938,0.05506 0.13866,0.08518c0.06372,0.04207 0.12387,0.08778 0.18505,0.13348c0.04792,0.03532 0.09736,0.07012 0.14324,0.10752c0.05454,0.04467 0.10603,0.09349 0.15854,0.14075c0.0469,0.04259 0.09533,0.08414 0.13968,0.12829c0.04996,0.04986 0.09635,0.10336 0.14375,0.15634c0.0418,0.04571 0.08513,0.09038 0.12489,0.13868c0.04792,0.05765 0.09125,0.11842 0.1356,0.17867c0.03466,0.04675 0.07086,0.09245 0.10297,0.14075c0.04231,0.06233 0.08054,0.12881 0.11979,0.19373c0.03008,0.0509 0.06117,0.0992 0.08921,0.15114c0.03364,0.06181 0.06372,0.12673 0.09431,0.19114c0.02855,0.05973 0.0576,0.11842 0.08309,0.17919c0.02498,0.05921 0.04639,0.11998 0.06882,0.18075c0.02549,0.06908 0.05149,0.13868 0.07341,0.20983c0.00612,0.01974 0.01478,0.03791 0.02039,0.05765c0.01172,0.04051 0.01886,0.08155 0.02957,0.12206c0.01886,0.07272 0.03721,0.14439 0.05251,0.21815c0.01325,0.0644 0.02396,0.12933 0.03416,0.19321c0.0107,0.06856 0.0209,0.13712 0.02855,0.2062c0.00765,0.06856 0.01274,0.1366 0.01682,0.20464c0.00408,0.06648 0.00714,0.13348 0.00765,0.20049c0.00051,0.06856 -0.00051,0.13712 -0.00306,0.20516c-0.00255,0.06752 -0.00612,0.13452 -0.01173,0.20152c-0.00561,0.06752 -0.01325,0.13452 -0.02243,0.201c-0.00918,0.06752 -0.01937,0.13452 -0.03161,0.20152c-0.01223,0.06648 -0.02651,0.13244 -0.0418,0.19841c-0.01529,0.06544 -0.0311,0.13089 -0.04996,0.19581c-0.01937,0.06804 -0.04129,0.13452 -0.06372,0.201c-0.02039,0.06181 -0.04129,0.12206 -0.06525,0.18231c-0.02702,0.07012 -0.0576,0.1392 -0.08921,0.20776c-0.01682,0.03844 -0.03059,0.07687 -0.04894,0.11427c-0.00918,0.0187 -0.01988,0.0348 -0.02957,0.05298c-0.03364,0.067 -0.07086,0.13193 -0.10858,0.19633c-0.03161,0.05506 -0.0627,0.11063 -0.09635,0.16361c-0.03619,0.05609 -0.07545,0.11063 -0.11419,0.16465c-0.04027,0.05661 -0.08003,0.11427 -0.12234,0.1688c-0.03772,0.04778 -0.07901,0.09297 -0.11877,0.1392c-0.04741,0.05506 -0.09431,0.11115 -0.14426,0.16309c-0.04333,0.04467 -0.08972,0.08622 -0.13509,0.12985c-0.05047,0.04727 -0.10042,0.09713 -0.15344,0.14283c-0.05149,0.04363 -0.10603,0.08414 -0.15956,0.12569c-0.05047,0.03947 -0.10042,0.07998 -0.15293,0.11686c-0.05811,0.04051 -0.11877,0.07739 -0.17944,0.11479c-0.05251,0.03324 -0.1045,0.067 -0.15854,0.09765c-0.05913,0.03376 -0.12132,0.06285 -0.1825,0.09349c-0.06015,0.03012 -0.11877,0.06025 -0.17944,0.08674c-0.05811,0.02545 -0.11776,0.04727 -0.1774,0.07012c-0.0678,0.02597 -0.1356,0.05246 -0.20493,0.07479c-0.01937,0.00623 -0.03772,0.01454 -0.0576,0.02078c-4.11382,1.25745 -7.7041,4.98825 -10.24529,8.48533h9.07333c1.72199,0 3.25894,1.10215 3.83956,2.75486c0.58062,1.65167 0.07952,3.49707 -1.25097,4.61117zM305.6504,144.95998l3.79011,3.86221c7.78159,-0.9453 15.48518,-1.69219 22.67391,-2.27546c-0.39915,-3.2031 -2.00695,-9.73811 -8.33672,-16.97793zM224.97424,174.78147c2.67067,1.30783 14.69453,5.91381 41.00715,-0.88712c31.61776,-8.17161 61.63332,-11.93514 86.80865,-10.90155c19.87784,0.82168 36.47991,4.73219 45.90855,10.77429c2.75172,-3.0639 6.69935,-6.73497 11.81027,-9.71941c-16.97115,-5.85616 -34.73906,-11.05633 -41.57146,-11.05633c-12.05037,0 -83.98556,2.99586 -112.49528,16.2461c-11.94026,5.55024 -19.79474,4.36446 -26.1969,0.98737c-1.45742,0.91984 -3.5648,2.46348 -5.27099,4.55664zM222.76746,198.70628c-4.07915,-3.32048 -8.79908,-8.84059 -8.79908,-16.6289c0,-7.90309 4.86062,-13.47254 8.97954,-16.77589c-0.54698,-0.42694 -1.08988,-0.85648 -1.63176,-1.28498c-5.79146,-4.58157 -11.74757,-9.29506 -21.78895,-10.64393c2.50295,7.43771 6.28491,20.10156 6.28491,28.70479c0,8.59752 -3.77686,21.2489 -6.2793,28.68869c9.9955,-1.39665 16.02094,-6.25142 21.87663,-10.97011c0.45114,-0.36358 0.90382,-0.72767 1.35802,-1.08969zM273.50605,211.12913c-5.51312,-1.83917 -11.06907,-4.07204 -16.68619,-6.77653l4.68017,14.30513c2.86081,-1.00295 7.32433,-3.13713 12.00602,-7.52861zM322.89478,219.32048c-3.68969,-0.14543 -7.37123,-0.35942 -11.05123,-0.6643v11.70453c3.72588,-1.70621 8.63341,-5.0002 11.05123,-11.04022zM371.6565,210.97643c-0.64129,-0.28982 -0.9344,-0.52251 -1.14443,-0.68872c-1.69599,-1.34367 -4.95493,-4.94255 -7.47216,-8.63803c-3.91093,-5.74137 -5.21797,-10.29697 -3.99606,-13.92649c0.86711,-2.57567 3.28748,-5.64581 9.89355,-5.64581c8.95762,0 18.68855,4.03465 25.60353,7.64391c-0.69583,-2.78395 -1.13525,-5.43182 -1.13525,-7.64443c0,-0.57289 0.11623,-1.13695 0.339,-1.65842c-8.26077,-5.00384 -23.47067,-8.38613 -41.28548,-9.12211c-24.39692,-1.00503 -53.60756,2.67643 -84.4729,10.6538c-11.3265,2.9273 -20.33153,3.92713 -27.34337,3.92765c-9.63306,0 -15.50608,-1.88488 -18.4979,-3.25036c0.30229,5.38611 4.96105,9.23793 7.75763,11.07554c6.5663,-3.67627 14.54568,-5.01163 26.69698,1.29225c24.30414,12.6062 47.71007,15.58388 71.66247,16.17339c0.03568,0.00104 0.07137,0.00104 0.10756,0.0026c7.85346,0.19114 15.76504,0.12725 23.78673,0.06181c4.14134,-0.0348 8.42338,-0.0696 12.70287,-0.0696c2.28681,0 4.55272,-0.06804 6.79723,-0.18698zM400.70249,206.36318c-0.66066,-1.36497 -1.37586,-2.95067 -2.09259,-4.67142c-3.20337,-2.11341 -17.82093,-11.30408 -29.67249,-11.30408c-1.21222,0 -1.86677,0.15582 -2.1767,0.26489c0.05302,0.80973 0.66881,2.93925 3.19165,6.56773c2.12012,3.04936 4.45791,5.52271 5.35816,6.33037c2.40508,0.93387 13.43541,2.51438 22.59336,3.47942c0.03161,0.00364 0.06168,0.01039 0.09329,0.01454c0.90993,-0.22074 1.81324,-0.4472 2.70533,-0.68144zM437.34451,174.18313c-4.34474,-1.83761 -9.71207,-3.94323 -15.54227,-6.09976c-11.18071,3.36567 -18.11251,12.20263 -20.18217,15.17044c0.52659,5.74345 4.50685,15.85864 7.07403,20.78924c9.17733,-2.9247 17.1042,-6.35426 23.22242,-9.50022h-1.80712c-1.39064,0 -2.68596,-0.72248 -3.43532,-1.91604c-0.74936,-1.19357 -0.85029,-2.69357 -0.26763,-3.98063c0.21104,-0.46486 4.05163,-8.79645 10.93806,-14.46303z" fill="#000000" stroke-width="1"/><path d="M419.06734,174.98455c0.76465,-0.77441 1.81477,-1.22057 2.88528,-1.22057c1.07561,0 2.12573,0.44668 2.88528,1.22057c0.75955,0.7739 1.19285,1.84385 1.19285,2.93977c0,1.09021 -0.4333,2.16587 -1.19285,2.93457c-0.75955,0.77338 -1.80967,1.21538 -2.88528,1.21538c-1.07561,0 -2.12573,-0.442 -2.88528,-1.21538c-0.75955,-0.7739 -1.19285,-1.84385 -1.19285,-2.93457c0,-1.09592 0.4333,-2.16587 1.19285,-2.93977z" fill="#000000" stroke-width="1"/><path d="M489.96997,267.85094v-176.74137h74.05105v176.74137z" fill="url(#color-1)" stroke-width="0"/></g></g></svg>